<svg width="24" height="24" viewBox="0 0 24 24" fill="none" xmlns="http://www.w3.org/2000/svg">
<path d="M12 2C17.514 2 22 6.486 22 12C22 17.514 17.514 22 12 22C6.486 22 2 17.514 2 12C2 6.486 6.486 2 12 2ZM12 0C5.373 0 0 5.373 0 12C0 18.627 5.373 24 12 24C18.627 24 24 18.627 24 12C24 5.373 18.627 0 12 0ZM11.992 14.408C13.291 14.408 14.346 13.352 14.346 12.054C14.346 11.35 14.034 10.717 13.543 10.285C13.369 10.134 13.175 10.007 12.963 9.911C12.666 9.776 12.338 9.701 11.992 9.701C11.645 9.701 11.317 9.776 11.021 9.911C10.81 10.007 10.615 10.134 10.443 10.285C9.951 10.717 9.638 11.349 9.638 12.054C9.639 13.352 10.695 14.408 11.992 14.408ZM12 10.315C12.961 10.315 13.738 11.093 13.738 12.054C13.738 13.015 12.961 13.794 12 13.794C11.039 13.794 10.262 13.015 10.262 12.054C10.262 11.094 11.039 10.315 12 10.315ZM14.611 10.5H18V15.639C18 16.943 16.942 18 15.639 18H8.393C7.088 18 6 16.943 6 15.639V10.5H9.373C9.102 10.957 8.937 11.485 8.937 12.054C8.937 13.742 10.304 15.109 11.992 15.109C13.679 15.109 15.047 13.741 15.047 12.054C15.047 11.485 14.883 10.957 14.611 10.5ZM15.639 6H9.5V8.5H9V6H8.5V8.5H8V6.039C7.826 6.067 7.659 6.11 7.5 6.173V8.5H7V6.449C6.398 6.877 6 7.572 6 8.361V10H9.736C10.32 9.358 11.135 9 11.992 9C12.852 9 13.667 9.362 14.247 10H18V8.36C18 7.057 16.942 6 15.639 6ZM17 8.632C17 8.835 16.834 9 16.627 9H15.372C15.167 9 15 8.835 15 8.632V7.367C15 7.165 15.167 7 15.372 7H16.627C16.834 7 17 7.165 17 7.367V8.632Z" fill="black"/>
</svg>
