<svg width="24" height="24" viewBox="0 0 24 24" fill="none" xmlns="http://www.w3.org/2000/svg">
<circle cx="12" cy="12" r="11" stroke="black" stroke-width="2"/>
<g clip-path="url(#clip0)">
<path fill-rule="evenodd" clip-rule="evenodd" d="M11.9339 6C9.46079 6.00024 7.74711 6.00846 6.86746 6.86746C6.00851 7.74691 6.00028 9.54107 6.00028 11.9338C8.65709 11.8536 9.87204 11.7871 10.841 10.8408C11.7872 9.87185 11.8538 8.65692 11.9339 6ZM6.86731 17.1326C6.00835 16.2532 6.00012 14.459 6.00012 12.0663C8.65694 12.1465 9.87189 12.213 10.8409 13.1592C11.7871 14.1283 11.8536 15.3432 11.9338 17.9999C9.46064 17.9999 7.74695 17.9919 6.86731 17.1326ZM12.0664 17.9999C12.1466 15.3432 12.2131 14.1283 13.1593 13.1592C14.1283 12.213 15.3433 12.1465 18.0001 12.0663C17.9998 14.459 17.9916 16.2532 17.1327 17.1326C16.253 17.9919 14.5396 17.9999 12.0664 17.9999ZM12.0664 6C12.1466 8.65692 12.2131 9.87185 13.1593 10.8408C14.1283 11.7871 15.3433 11.8536 18.0001 11.9338C17.9998 9.54107 17.9916 7.74691 17.1327 6.86746C16.253 6.00846 14.5396 6.00024 12.0664 6Z" fill="black"/>
</g>
<defs>
<clipPath id="clip0">
<rect width="12" height="12" fill="white" transform="translate(6 6)"/>
</clipPath>
</defs>
</svg>
