<svg width="105" height="20" viewBox="0 0 105 20" fill="none" xmlns="http://www.w3.org/2000/svg">
<path d="M11.1353 1.65796L13.8155 6.61631L19.8089 7.4163L15.4721 11.2737L16.4956 16.7231L11.1353 14.1489L5.77507 16.7231L6.79855 11.2737L2.46176 7.4163L8.4552 6.61631L11.1353 1.65796Z" fill="#FFE656" stroke="#FFE656" stroke-linecap="round" stroke-linejoin="round"/>
<path d="M31.9523 1.65796L34.6324 6.61631L40.6258 7.4163L36.2891 11.2737L37.3126 16.7231L31.9523 14.1489L26.5921 16.7231L27.6155 11.2737L23.2788 7.4163L29.2722 6.61631L31.9523 1.65796Z" fill="#FFE656" stroke="#FFE656" stroke-linecap="round" stroke-linejoin="round"/>
<path d="M52.7694 1.65796L55.4495 6.61631L61.4429 7.4163L57.1062 11.2737L58.1296 16.7231L52.7694 14.1489L47.4091 16.7231L48.4326 11.2737L44.0958 7.4163L50.0892 6.61631L52.7694 1.65796Z" fill="#FFE656" stroke="#FFE656" stroke-linecap="round" stroke-linejoin="round"/>
<path d="M73.5847 1.65796L76.2648 6.61631L82.2583 7.4163L77.9215 11.2737L78.945 16.7231L73.5847 14.1489L68.2245 16.7231L69.248 11.2737L64.9112 7.4163L70.9046 6.61631L73.5847 1.65796Z" fill="#FFE656" stroke="#FFE656" stroke-linecap="round" stroke-linejoin="round"/>
<path d="M94.4017 1.65796L97.0819 6.61631L103.075 7.4163L98.7385 11.2737L99.762 16.7231L94.4017 14.1489L89.0415 16.7231L90.065 11.2737L85.7282 7.4163L91.7216 6.61631L94.4017 1.65796Z" stroke="#FFE656" stroke-linecap="round" stroke-linejoin="round"/>
</svg>
