<svg width="130" height="40" viewBox="0 0 130 40" fill="none" xmlns="http://www.w3.org/2000/svg">
<path d="M14.6558 17.5504H16.9585C17.3301 17.5525 17.7011 17.5222 18.0678 17.4597C18.3831 17.4089 18.6875 17.3011 18.9669 17.1411C19.2127 16.9994 19.4203 16.7959 19.5706 16.5493C19.7249 16.2734 19.8007 15.9577 19.7892 15.6389C19.7892 15.1235 19.593 14.7363 19.1973 14.4786C18.8016 14.2208 18.2469 14.0914 17.5302 14.0914C16.8185 14.0801 16.1092 14.1774 15.4248 14.3801C14.8288 14.568 14.2548 14.8236 13.7129 15.1423L12.6154 12.3426C13.275 11.931 13.9884 11.6207 14.7337 11.4211C15.6541 11.1718 16.6024 11.0509 17.5537 11.0616C18.3239 11.0559 19.0917 11.1525 19.8383 11.3492C20.4862 11.5155 21.1002 11.8006 21.6514 12.191C22.1573 12.5537 22.5696 13.0395 22.8524 13.6058C23.1476 14.224 23.294 14.9072 23.279 15.5969C23.2721 16.1999 23.1172 16.7911 22.8289 17.3148C22.5017 17.9126 22.0292 18.4111 21.4584 18.7605C21.7963 18.9424 22.1176 19.1556 22.4183 19.3977C22.7171 19.6397 22.9827 19.9229 23.2076 20.2395C23.4384 20.5688 23.6183 20.9334 23.7408 21.3202C23.8781 21.7579 23.9448 22.2161 23.9382 22.6764C23.9382 24.3614 23.364 25.5867 22.2156 26.3521C21.0673 27.1176 19.4692 27.5007 17.4214 27.5014C16.9111 27.5028 16.4014 27.4659 15.8962 27.3908C15.3921 27.3171 14.9093 27.2223 14.4478 27.1065C14.0092 26.9995 13.5769 26.8665 13.153 26.7083C12.7876 26.5738 12.4313 26.4142 12.0864 26.2305L13.0965 23.454C13.3002 23.5447 13.553 23.6476 13.8527 23.7604C14.1524 23.8732 14.4851 23.9816 14.852 24.0922C15.2189 24.2029 15.5986 24.2891 15.9922 24.3655C16.3834 24.4401 16.7805 24.4771 17.1782 24.4761C18.1431 24.4761 18.9217 24.3319 19.514 24.0436C20.1063 23.7552 20.4028 23.2545 20.4035 22.5414C20.4204 22.1625 20.3207 21.7879 20.1188 21.4717C19.9199 21.1921 19.6499 20.9753 19.3391 20.8457C18.9667 20.6905 18.5749 20.5911 18.1755 20.5503C17.691 20.4951 17.2038 20.4685 16.7164 20.4707H14.6558V17.5504Z" fill="#1D1D1B"/>
<path d="M30.6106 14.8879C31.5755 14.8879 32.3804 15.0018 33.0253 15.2297C33.6104 15.4198 34.1417 15.7555 34.5729 16.2075C34.9659 16.6456 35.2484 17.1775 35.3952 17.7562C35.5622 18.4172 35.6432 19.0983 35.6363 19.7815V26.8378C35.167 26.9395 34.5153 27.0642 33.6813 27.2117C32.6793 27.3698 31.6667 27.4438 30.6533 27.4329C29.9727 27.4396 29.2934 27.371 28.6268 27.2282C28.0671 27.1122 27.5345 26.8842 27.0589 26.5568C26.6242 26.2513 26.2756 25.8313 26.0489 25.34C25.8157 24.84 25.6987 24.2257 25.698 23.4972C25.698 22.7988 25.8335 22.207 26.1044 21.7218C26.3658 21.2459 26.7393 20.8466 27.1901 20.5614C27.6711 20.2624 28.1977 20.0507 28.7473 19.9353C29.3468 19.8052 29.9577 19.7403 30.5701 19.7417C30.9473 19.7391 31.3244 19.7583 31.6996 19.7992C31.9699 19.8261 32.2378 19.8753 32.5006 19.9464V19.6278C32.5006 19.0518 32.3324 18.5891 31.9961 18.2396C31.6598 17.89 31.0742 17.7156 30.2394 17.7163C29.689 17.7161 29.1393 17.7579 28.5948 17.8413C28.1162 17.9091 27.6456 18.0273 27.1901 18.1942L26.771 15.4564C26.9608 15.3967 27.1976 15.3315 27.4845 15.2629C27.7714 15.1943 28.0796 15.1346 28.4167 15.0815C28.7537 15.0284 29.1078 14.983 29.4832 14.9443C29.8587 14.9056 30.2288 14.8879 30.6106 14.8879ZM30.8741 24.8102C31.194 24.8102 31.5033 24.8035 31.7966 24.788C32.0316 24.7787 32.2659 24.7558 32.4984 24.7195V22.1476C32.3662 22.1178 32.1699 22.0879 31.9065 22.0569C31.6657 22.0283 31.4236 22.0131 31.1812 22.0116C30.8917 22.0104 30.6023 22.0292 30.3152 22.068C30.0677 22.0995 29.8267 22.1724 29.6016 22.2837C29.407 22.3817 29.2404 22.5308 29.1185 22.7162C28.9962 22.9211 28.9353 23.159 28.9436 23.3998C28.9436 23.9308 29.1156 24.2995 29.4598 24.506C29.8039 24.7125 30.2746 24.8139 30.8719 24.8102H30.8741Z" fill="#1D1D1B"/>
<path d="M49.108 15.2065V27.1774H45.8165C45.8165 26.4186 45.8237 25.6638 45.8379 24.9131C45.8521 24.1624 45.8667 23.4681 45.8816 22.8302C45.8965 22.193 45.9147 21.6355 45.936 21.1576C45.9573 20.6798 45.9687 20.3273 45.9701 20.1002C45.5435 20.7218 45.119 21.3512 44.6966 21.9884C44.2743 22.6255 43.8683 23.2524 43.4786 23.8689C43.0918 24.4839 42.7263 25.072 42.3822 25.6332C42.038 26.1944 41.7344 26.7106 41.4713 27.1818H38.5969V15.2065H41.866C41.866 15.9653 41.8624 16.6898 41.8553 17.3801C41.8482 18.0703 41.8372 18.6972 41.8222 19.2606C41.8073 19.8225 41.7927 20.3118 41.7785 20.7285C41.7643 21.1451 41.7568 21.4677 41.7561 21.6963C42.6342 20.3586 43.4424 19.1588 44.1804 18.0969C44.9185 17.035 45.6391 16.0715 46.3424 15.2065H49.108Z" fill="#1D1D1B"/>
<path d="M55.4274 20.2705C55.3989 20.8029 55.3698 21.3804 55.3399 22.0028C55.3101 22.6252 55.2845 23.252 55.2631 23.8832C55.2404 24.5152 55.2183 25.1155 55.197 25.6841C55.1746 26.2537 55.1565 26.7526 55.1415 27.1774H51.96C51.9884 26.3433 52.036 25.4027 52.1029 24.3556C52.1697 23.3084 52.2426 22.2424 52.3215 21.1576C52.4026 20.0736 52.4904 19.0154 52.585 17.983C52.6795 16.9505 52.7709 16.025 52.8591 15.2065H55.581C56.215 16.273 56.7953 17.3729 57.3195 18.5017C57.8485 19.6367 58.4063 20.8863 58.9929 22.2505C59.6094 20.7963 60.2113 19.4519 60.7986 18.2175C61.2775 17.1867 61.8065 16.1817 62.3836 15.2065H65.1492C65.2502 16.025 65.3486 16.9505 65.4446 17.983C65.5406 19.0154 65.6284 20.0736 65.7081 21.1576C65.7884 22.2439 65.857 23.3099 65.9139 24.3556C65.9708 25.4013 66.0149 26.3419 66.0462 27.1774H62.8006C62.7707 25.9931 62.7302 24.8154 62.679 23.6443C62.6278 22.4732 62.5802 21.3394 62.5361 20.2428L60.116 25.7615H57.8485L55.4274 20.2705Z" fill="#1D1D1B"/>
<path d="M95.2448 20.7959C95.2448 19.703 95.1093 18.9287 94.8384 18.473C94.5675 18.0172 94.1032 17.7897 93.4455 17.7905C93.2317 17.7906 93.0181 17.802 92.8055 17.8248C92.5922 17.8469 92.3789 17.8745 92.1656 17.9044V27.1442H88.8987V15.5815C89.176 15.5062 89.5024 15.4266 89.8746 15.3425C90.2468 15.2585 90.6425 15.1832 91.0596 15.1213C91.4766 15.0593 91.9053 14.9996 92.3394 14.962C92.7735 14.9244 93.2098 14.9045 93.6343 14.9045C94.4683 14.9045 95.1438 15.0151 95.6607 15.2363C96.1256 15.4244 96.5579 15.6897 96.9406 16.0217C97.9116 15.3295 99.0543 14.9424 100.232 14.9067C101.156 14.9067 101.914 15.0394 102.504 15.3049C103.063 15.5444 103.551 15.9333 103.918 16.4321C104.281 16.945 104.529 17.5358 104.643 18.161C104.78 18.8961 104.846 19.6435 104.84 20.3922V27.1508H101.582V20.7959C101.582 19.703 101.447 18.9287 101.177 18.473C100.907 18.0172 100.442 17.7897 99.7819 17.7905C99.5328 17.8034 99.2862 17.8491 99.0482 17.9265C98.7735 18.0002 98.5108 18.1154 98.2685 18.2683C98.373 18.6285 98.4392 18.9994 98.4658 19.3745C98.4957 19.7616 98.5106 20.175 98.5106 20.6145V27.1409H95.2448V20.7959Z" fill="#1D1D1B"/>
<path d="M107.265 21.2483C107.265 20.1864 107.423 19.2572 107.738 18.4608C108.018 17.7175 108.44 17.0403 108.978 16.4697C109.48 15.9458 110.082 15.5356 110.744 15.2651C111.397 14.9945 112.093 14.8556 112.795 14.8558C114.431 14.8558 115.726 15.3753 116.68 16.4144C117.634 17.4534 118.109 18.9821 118.106 21.0005C118.106 21.1974 118.099 21.4142 118.084 21.6498C118.069 21.8854 118.055 22.0923 118.04 22.2748H110.623C110.652 22.6065 110.752 22.9273 110.915 23.2142C111.078 23.5011 111.301 23.7469 111.567 23.9341C112.123 24.3433 112.87 24.548 113.806 24.548C114.399 24.5488 114.99 24.4918 115.573 24.3776C116.058 24.2921 116.533 24.1512 116.988 23.9573L117.427 26.7105C117.201 26.822 116.966 26.9134 116.725 26.9838C116.403 27.0819 116.077 27.1617 115.748 27.2227C115.392 27.2913 115.008 27.3481 114.597 27.393C114.188 27.439 113.778 27.4619 113.367 27.4616C112.328 27.4616 111.425 27.3023 110.657 26.9838C109.936 26.6973 109.284 26.2506 108.748 25.6752C108.238 25.1132 107.856 24.4406 107.629 23.7062C107.382 22.9123 107.259 22.0825 107.265 21.2483ZM114.944 19.9508C114.931 19.6652 114.883 19.3825 114.803 19.109C114.726 18.8432 114.599 18.5958 114.429 18.3811C114.253 18.1626 114.035 17.9844 113.789 17.8579C113.49 17.7106 113.161 17.6401 112.829 17.6522C112.505 17.6437 112.183 17.7098 111.886 17.8457C111.639 17.9696 111.42 18.1455 111.243 18.3623C111.065 18.5805 110.927 18.8315 110.837 19.1023C110.742 19.3795 110.67 19.6649 110.624 19.9552L114.944 19.9508Z" fill="#1D1D1B"/>
<path d="M47.7748 9.9754C47.6315 10.9392 47.1601 11.8179 46.446 12.4524C45.7318 13.0868 44.8222 13.4351 43.8819 13.434C42.9416 13.4329 42.0328 13.0826 41.32 12.4466C40.6072 11.8105 40.1376 10.9307 39.9963 9.96655L42.0996 9.39246C42.111 9.87413 42.3035 10.3321 42.636 10.6686C42.9685 11.0051 43.4146 11.1935 43.8792 11.1935C44.3438 11.1935 44.7899 11.0051 45.1224 10.6686C45.4549 10.3321 45.6474 9.87413 45.6588 9.39246L47.7748 9.9754Z" fill="#070707"/>
<path d="M74.4242 25.8909C74.4242 25.5065 74.3143 25.1307 74.1084 24.8111C73.9025 24.4915 73.6098 24.2424 73.2674 24.0953C72.925 23.9482 72.5482 23.9097 72.1846 23.9847C71.8211 24.0597 71.4872 24.2448 71.2251 24.5166C70.9631 24.7884 70.7846 25.1347 70.7123 25.5117C70.64 25.8887 70.6771 26.2795 70.8189 26.6346C70.9608 26.9897 71.2009 27.2933 71.5091 27.5068C71.8173 27.7204 72.1796 27.8344 72.5502 27.8344C73.0472 27.8341 73.5237 27.6292 73.875 27.2648C74.2264 26.9004 74.4239 26.4062 74.4242 25.8909Z" fill="#009EE2"/>
<path d="M82.6592 15.3956L82.4598 15.9796L81.5255 18.265C82.0854 19.1319 82.387 20.1506 82.3926 21.1941C82.3912 22.6273 81.8416 24.0015 80.8644 25.015C79.8872 26.0284 78.5622 26.5984 77.1803 26.5999C76.7913 26.5932 76.4045 26.5379 76.0284 26.4351C75.9592 26.9196 75.7968 27.3848 75.5507 27.8029C75.3046 28.221 74.9799 28.5834 74.5959 28.8686C75.4239 29.1837 76.2983 29.3476 77.1803 29.3531C79.2647 29.3505 81.2631 28.4905 82.7369 26.9617C84.2107 25.433 85.0397 23.3603 85.042 21.1985C85.0405 20.1149 84.8288 19.0427 84.4195 18.0458C84.0101 17.0488 83.4115 16.1475 82.6592 15.3956Z" fill="url(#paint0_linear)"/>
<path d="M82.7659 7.66681L77.7744 11.6402L79.4595 12.3614L76.0625 20.4098L73.9678 22.5414C74.8064 22.9239 75.4697 23.6284 75.8183 24.5071L78.137 22.1454L81.8956 13.4067L83.5882 14.1312L82.7659 7.66681Z" fill="url(#paint1_linear)"/>
<path d="M77.1801 13.0394C75.0955 13.0418 73.0969 13.9017 71.6228 15.4305C70.1488 16.9592 69.3196 19.032 69.3174 21.1941C69.3215 22.0516 69.4602 22.9026 69.728 23.7139C70.0111 23.3206 70.3677 22.9906 70.7765 22.7435C71.1854 22.4964 71.6381 22.3374 72.1075 22.2759C72.0205 21.9221 71.9733 21.5591 71.9667 21.1941C71.9729 19.968 72.3797 18.7804 73.1207 17.8251C73.8616 16.8698 74.893 16.2032 76.0464 15.9343L76.9679 13.6246L77.2015 13.0405L77.1801 13.0394Z" fill="url(#paint2_linear)"/>
<defs>
<linearGradient id="paint0_linear" x1="74.5959" y1="22.3721" x2="85.042" y2="22.3721" gradientUnits="userSpaceOnUse">
<stop stop-color="#23A1ED"/>
<stop offset="0.43" stop-color="#2BC7E1"/>
<stop offset="1" stop-color="#20D66B"/>
</linearGradient>
<linearGradient id="paint1_linear" x1="6745.57" y1="2456.74" x2="7613.62" y2="2456.74" gradientUnits="userSpaceOnUse">
<stop stop-color="#23A1ED"/>
<stop offset="0.43" stop-color="#2BC7E1"/>
<stop offset="1" stop-color="#20D66B"/>
</linearGradient>
<linearGradient id="paint2_linear" x1="5193.25" y1="1786.39" x2="5776.36" y2="1786.39" gradientUnits="userSpaceOnUse">
<stop stop-color="#23A1ED"/>
<stop offset="0.43" stop-color="#2BC7E1"/>
<stop offset="1" stop-color="#20D66B"/>
</linearGradient>
</defs>
</svg>
