<svg width="180" height="55" viewBox="0 0 180 55" fill="none" xmlns="http://www.w3.org/2000/svg">
<path d="M20.2926 24.1319H23.481C23.9954 24.1349 24.5092 24.0932 25.0168 24.0072C25.4535 23.9374 25.8749 23.7891 26.2618 23.5692C26.6021 23.3743 26.8895 23.0945 27.0976 22.7554C27.3113 22.376 27.4162 21.942 27.4004 21.5037C27.4004 20.7949 27.1286 20.2626 26.5807 19.9082C26.0329 19.5538 25.2649 19.3758 24.2725 19.3758C23.2872 19.3603 22.3049 19.4941 21.3573 19.7728C20.5322 20.0311 19.7373 20.3826 18.9871 20.8208L17.4675 16.9712C18.3806 16.4053 19.3685 15.9786 20.4004 15.7042C21.6748 15.3614 22.9879 15.1951 24.305 15.2099C25.3715 15.2019 26.4346 15.3348 27.4683 15.6053C28.3654 15.834 29.2156 16.226 29.9788 16.7628C30.6792 17.2615 31.2502 17.9294 31.6417 18.7081C32.0505 19.5581 32.2532 20.4975 32.2324 21.4459C32.2228 22.275 32.0083 23.0879 31.6092 23.808C31.1561 24.63 30.5019 25.3154 29.7115 25.7959C30.1794 26.0459 30.6243 26.3391 31.0407 26.672C31.4544 27.0047 31.8221 27.3941 32.1335 27.8294C32.4531 28.2822 32.7022 28.7836 32.8719 29.3154C33.0619 29.9173 33.1542 30.5473 33.1451 31.1801C33.1451 33.4971 32.3501 35.1818 30.7601 36.2343C29.1701 37.2869 26.9573 37.8136 24.1219 37.8146C23.4153 37.8166 22.7095 37.7657 22.0101 37.6625C21.3121 37.5611 20.6436 37.4308 20.0046 37.2716C19.3973 37.1245 18.7988 36.9416 18.2118 36.7241C17.7059 36.5392 17.2125 36.3197 16.735 36.067L18.1335 32.2494C18.4156 32.3741 18.7656 32.5156 19.1806 32.6707C19.5955 32.8258 20.0563 32.9749 20.5643 33.127C21.0723 33.2791 21.5981 33.3977 22.143 33.5027C22.6847 33.6053 23.2344 33.6562 23.7852 33.6548C25.1212 33.6548 26.1992 33.4565 27.0194 33.0601C27.8395 32.6636 28.25 31.9751 28.251 30.9946C28.2744 30.4736 28.1363 29.9586 27.8567 29.5238C27.5813 29.1393 27.2075 28.8412 26.7772 28.6629C26.2615 28.4496 25.719 28.3129 25.166 28.2568C24.4951 28.1808 23.8206 28.1443 23.1457 28.1473H20.2926V24.1319Z" fill="#1D1D1B"/>
<path d="M42.3839 20.4707C43.7199 20.4707 44.8344 20.6274 45.7273 20.9407C46.5374 21.202 47.2731 21.6637 47.8701 22.2852C48.4143 22.8875 48.8054 23.619 49.0087 24.4146C49.2398 25.3235 49.3521 26.26 49.3425 27.1995V36.9018C48.6927 37.0417 47.7904 37.2131 46.6355 37.4159C45.2482 37.6334 43.8461 37.7351 42.4429 37.7201C41.5006 37.7293 40.56 37.635 39.637 37.4387C38.862 37.2792 38.1247 36.9656 37.4662 36.5155C36.8642 36.0954 36.3815 35.518 36.0676 34.8424C35.7447 34.1549 35.5828 33.3103 35.5818 32.3085C35.5818 31.3482 35.7693 30.5345 36.1444 29.8673C36.5064 29.213 37.0237 28.664 37.6478 28.2718C38.3138 27.8607 39.0429 27.5696 39.8039 27.4109C40.6339 27.232 41.4798 27.1427 42.3278 27.1447C42.8501 27.1411 43.3722 27.1675 43.8917 27.2238C44.266 27.2608 44.6369 27.3284 45.0007 27.4261V26.9881C45.0007 26.1962 44.7679 25.5599 44.3022 25.0793C43.8365 24.5986 43.0258 24.3588 41.8699 24.3598C41.1078 24.3595 40.3467 24.417 39.5927 24.5317C38.9301 24.6249 38.2784 24.7875 37.6478 25.0169L37.0674 21.2525C37.3303 21.1704 37.6582 21.0806 38.0554 20.9863C38.4527 20.892 38.8795 20.8099 39.3461 20.7369C39.8128 20.6639 40.3031 20.6015 40.8229 20.5483C41.3427 20.495 41.8552 20.4707 42.3839 20.4707ZM42.7486 34.1139C43.1917 34.1139 43.6199 34.1047 44.0261 34.0834C44.3514 34.0706 44.6758 34.0391 44.9978 33.9891V30.4529C44.8147 30.4118 44.5429 30.3707 44.1782 30.3281C43.8448 30.2887 43.5095 30.2679 43.174 30.2658C42.773 30.2642 42.3724 30.2901 41.9748 30.3434C41.6321 30.3867 41.2985 30.4869 40.9868 30.6399C40.7173 30.7747 40.4867 30.9797 40.3178 31.2346C40.1485 31.5164 40.0642 31.8435 40.0757 32.1746C40.0757 32.9047 40.3139 33.4117 40.7904 33.6956C41.2669 33.9795 41.9187 34.1189 42.7457 34.1139H42.7486Z" fill="#1D1D1B"/>
<path d="M67.9958 20.9087V37.3687H63.4385C63.4385 36.3253 63.4483 35.2875 63.468 34.2553C63.4877 33.223 63.5079 32.2684 63.5285 31.3913C63.5492 30.5152 63.5743 29.7486 63.6039 29.0915C63.6334 28.4345 63.6492 27.9498 63.6511 27.6375C63.0604 28.4923 62.4726 29.3577 61.8878 30.2338C61.303 31.1099 60.7409 31.9718 60.2013 32.8195C59.6658 33.6651 59.1597 34.4738 58.6832 35.2454C58.2067 36.0171 57.7863 36.7268 57.422 37.3748H53.4421V20.9087H57.9684C57.9684 21.9521 57.9635 22.9483 57.9537 23.8974C57.9438 24.8465 57.9286 25.7084 57.9079 26.4831C57.8872 27.2557 57.867 27.9285 57.8473 28.5014C57.8276 29.0743 57.8173 29.5179 57.8163 29.8323C59.0322 27.9929 60.1511 26.3431 61.1731 24.883C62.195 23.4229 63.1928 22.0981 64.1665 20.9087H67.9958Z" fill="#1D1D1B"/>
<path d="M76.7458 27.8717C76.7064 28.6038 76.6661 29.3978 76.6247 30.2536C76.5834 31.1094 76.5479 31.9713 76.5184 32.8392C76.4869 33.7082 76.4564 34.5336 76.4268 35.3154C76.3958 36.0987 76.3707 36.7846 76.35 37.3687H71.9448C71.9841 36.2219 72.0501 34.9285 72.1427 33.4887C72.2352 32.0488 72.3361 30.5831 72.4454 29.0915C72.5576 27.601 72.6792 26.1459 72.8102 24.7263C72.9411 23.3068 73.0676 22.0342 73.1897 20.9087H76.9585C77.8363 22.3752 78.6398 23.8875 79.3656 25.4397C80.0981 27.0002 80.8705 28.7184 81.6827 30.5943C82.5363 28.5947 83.3697 26.7462 84.1829 25.0488C84.846 23.6314 85.5785 22.2496 86.3775 20.9087H90.2068C90.3466 22.0342 90.4829 23.3068 90.6159 24.7263C90.7488 26.1459 90.8704 27.601 90.9806 29.0915C91.0919 30.5851 91.1869 32.0509 91.2656 33.4887C91.3444 34.9265 91.4054 36.2198 91.4488 37.3687H86.9549C86.9135 35.7402 86.8574 34.1209 86.7865 32.5107C86.7156 30.9005 86.6497 29.3415 86.5886 27.8337L83.2378 35.4218H80.0981L76.7458 27.8717Z" fill="#1D1D1B"/>
<path d="M131.877 28.5944C131.877 27.0916 131.69 26.027 131.315 25.4003C130.94 24.7737 130.297 24.4609 129.386 24.4619C129.09 24.462 128.794 24.4777 128.5 24.509C128.205 24.5394 127.909 24.5775 127.614 24.6185V37.3232H123.09V21.4245C123.474 21.3211 123.926 21.2116 124.442 21.096C124.957 20.9804 125.505 20.8769 126.082 20.7918C126.66 20.7066 127.254 20.6245 127.855 20.5727C128.456 20.521 129.06 20.4937 129.647 20.4937C130.802 20.4937 131.738 20.6457 132.453 20.9499C133.097 21.2085 133.696 21.5733 134.225 22.0298C135.57 21.0781 137.152 20.5458 138.783 20.4967C140.063 20.4967 141.111 20.6792 141.928 21.0442C142.703 21.3735 143.378 21.9083 143.887 22.5941C144.39 23.2994 144.733 24.1117 144.891 24.9714C145.081 25.9821 145.172 27.0098 145.163 28.0392V37.3324H140.652V28.5944C140.652 27.0916 140.465 26.027 140.091 25.4003C139.717 24.7737 139.073 24.4609 138.16 24.4619C137.815 24.4797 137.473 24.5425 137.144 24.649C136.763 24.7503 136.4 24.9086 136.064 25.1189C136.209 25.6141 136.3 26.1242 136.337 26.6399C136.379 27.1723 136.399 27.7406 136.399 28.3449V37.3187H131.877V28.5944Z" fill="#1D1D1B"/>
<path d="M148.521 29.2165C148.521 27.7563 148.739 26.4787 149.175 25.3836C149.563 24.3616 150.147 23.4305 150.892 22.6459C151.588 21.9256 152.42 21.3616 153.338 20.9895C154.241 20.6176 155.205 20.4266 156.178 20.4268C158.442 20.4268 160.235 21.1411 161.556 22.5698C162.878 23.9985 163.536 26.1005 163.531 28.8758C163.531 29.1465 163.522 29.4446 163.501 29.7686C163.481 30.0926 163.46 30.377 163.439 30.6279H153.17C153.21 31.084 153.349 31.5252 153.575 31.9196C153.801 32.3141 154.109 32.6521 154.477 32.9094C155.248 33.4722 156.281 33.7535 157.578 33.7535C158.398 33.7547 159.217 33.6763 160.023 33.5193C160.695 33.4017 161.353 33.2079 161.983 32.9413L162.592 36.7271C162.278 36.8803 161.953 37.006 161.618 37.1027C161.174 37.2377 160.722 37.3474 160.266 37.4313C159.773 37.5256 159.242 37.6036 158.672 37.6655C158.107 37.7287 157.538 37.7602 156.969 37.7598C155.531 37.7598 154.28 37.5408 153.217 37.1027C152.219 36.7088 151.317 36.0946 150.573 35.3034C149.868 34.5307 149.339 33.6058 149.024 32.5961C148.682 31.5045 148.512 30.3635 148.521 29.2165ZM159.154 27.4324C159.134 27.0397 159.069 26.651 158.957 26.2749C158.851 25.9094 158.675 25.5693 158.44 25.2741C158.197 24.9736 157.895 24.7286 157.554 24.5547C157.14 24.3522 156.684 24.2551 156.225 24.2718C155.776 24.2601 155.329 24.351 154.918 24.538C154.577 24.7082 154.274 24.9502 154.029 25.2483C153.782 25.5482 153.591 25.8934 153.467 26.2658C153.335 26.6469 153.236 27.0393 153.171 27.4385L159.154 27.4324Z" fill="#1D1D1B"/>
<path d="M66.1499 13.7161C65.9514 15.0414 65.2987 16.2496 64.3099 17.122C63.3211 17.9943 62.0617 18.4731 60.7597 18.4717C59.4577 18.4702 58.1993 17.9885 57.2124 17.1139C56.2254 16.2393 55.5753 15.0296 55.3796 13.7039L58.2919 12.9146C58.3076 13.5768 58.5741 14.2066 59.0345 14.6692C59.4949 15.1319 60.1126 15.3909 60.7559 15.3909C61.3991 15.3909 62.0169 15.1319 62.4773 14.6692C62.9377 14.2066 63.2042 13.5768 63.2199 12.9146L66.1499 13.7161Z" fill="#070707"/>
<path d="M103.049 35.6001C103.049 35.0715 102.897 34.5549 102.612 34.1154C102.327 33.6759 101.921 33.3334 101.447 33.1312C100.973 32.9289 100.451 32.876 99.948 32.9791C99.4447 33.0822 98.9824 33.3367 98.6195 33.7104C98.2566 34.0842 98.0095 34.5604 97.9094 35.0787C97.8092 35.5971 97.8606 36.1344 98.057 36.6228C98.2534 37.1111 98.586 37.5284 99.0127 37.8221C99.4394 38.1157 99.941 38.2724 100.454 38.2724C101.142 38.272 101.802 37.9904 102.289 37.4893C102.775 36.9882 103.049 36.3087 103.049 35.6001Z" fill="#009EE2"/>
<path d="M114.451 21.1689L114.175 21.972L112.881 25.1144C113.657 26.3064 114.074 27.7071 114.082 29.1419C114.08 31.1126 113.319 33.0021 111.966 34.3956C110.613 35.7891 108.778 36.5729 106.865 36.5749C106.326 36.5657 105.791 36.4896 105.27 36.3483C105.174 37.0145 104.949 37.6542 104.609 38.229C104.268 38.8039 103.818 39.3023 103.287 39.6944C104.433 40.1277 105.644 40.3531 106.865 40.3606C109.751 40.357 112.518 39.1745 114.559 37.0724C116.599 34.9704 117.747 32.1205 117.75 29.148C117.748 27.6581 117.455 26.1838 116.888 24.813C116.322 23.4422 115.493 22.2029 114.451 21.1689Z" fill="url(#paint0_linear)"/>
<path d="M114.599 10.542L107.688 16.0053L110.021 16.997L105.317 28.0636L102.417 30.9946C103.578 31.5204 104.496 32.4891 104.979 33.6973L108.19 30.45L113.394 18.4343L115.738 19.4306L114.599 10.542Z" fill="url(#paint1_linear)"/>
<path d="M106.865 17.9292C103.978 17.9324 101.211 19.1148 99.1702 21.2169C97.1292 23.3189 95.9812 26.169 95.978 29.1418C95.9837 30.3209 96.1758 31.4911 96.5466 32.6066C96.9385 32.0659 97.4323 31.612 97.9984 31.2723C98.5645 30.9326 99.1913 30.7139 99.8413 30.6293C99.7208 30.1429 99.6554 29.6438 99.6464 29.1418C99.6549 27.456 100.218 25.823 101.244 24.5095C102.27 23.1959 103.698 22.2794 105.295 21.9096L106.571 18.7338L106.894 17.9307L106.865 17.9292Z" fill="url(#paint2_linear)"/>
<defs>
<linearGradient id="paint0_linear" x1="103.287" y1="30.7617" x2="117.75" y2="30.7617" gradientUnits="userSpaceOnUse">
<stop stop-color="#23A1ED"/>
<stop offset="0.43" stop-color="#2BC7E1"/>
<stop offset="1" stop-color="#20D66B"/>
</linearGradient>
<linearGradient id="paint1_linear" x1="9340.03" y1="3378.02" x2="10542" y2="3378.02" gradientUnits="userSpaceOnUse">
<stop stop-color="#23A1ED"/>
<stop offset="0.43" stop-color="#2BC7E1"/>
<stop offset="1" stop-color="#20D66B"/>
</linearGradient>
<linearGradient id="paint2_linear" x1="7190.66" y1="2456.29" x2="7998.04" y2="2456.29" gradientUnits="userSpaceOnUse">
<stop stop-color="#23A1ED"/>
<stop offset="0.43" stop-color="#2BC7E1"/>
<stop offset="1" stop-color="#20D66B"/>
</linearGradient>
</defs>
</svg>
