<svg width="14" height="15" viewBox="0 0 14 15" fill="none" xmlns="http://www.w3.org/2000/svg">
<path d="M12.25 6.25C12.25 10.625 7 14.375 7 14.375C7 14.375 1.75 10.625 1.75 6.25C1.75 4.75816 2.30312 3.32742 3.28769 2.27252C4.27226 1.21763 5.60761 0.625 7 0.625C8.39239 0.625 9.72774 1.21763 10.7123 2.27252C11.6969 3.32742 12.25 4.75816 12.25 6.25Z" stroke="#535353" stroke-linecap="round" stroke-linejoin="round"/>
<path d="M7 8.125C7.9665 8.125 8.75 7.28553 8.75 6.25C8.75 5.21447 7.9665 4.375 7 4.375C6.0335 4.375 5.25 5.21447 5.25 6.25C5.25 7.28553 6.0335 8.125 7 8.125Z" stroke="#535353" stroke-linecap="round" stroke-linejoin="round"/>
</svg>
